<?xml version="1.0" encoding="iso-8859-1"?>
<!-- Generator: Adobe Illustrator 16.0.0, SVG Export Plug-In . SVG Version: 6.00 Build 0)  -->
<!DOCTYPE svg PUBLIC "-//W3C//DTD SVG 1.1//EN" "http://www.w3.org/Graphics/SVG/1.1/DTD/svg11.dtd">
<svg xmlns="http://www.w3.org/2000/svg" xmlns:xlink="http://www.w3.org/1999/xlink" version="1.1" id="Capa_1" x="0px" y="0px" width="512px" height="512px" viewBox="0 0 976.8 976.799" style="enable-background:new 0 0 976.8 976.799;" xml:space="preserve">
<g>
	<path d="M976.8,846.1V402c0-33.1-26.899-60-60-60h-15.6v368.5c0,32.101-12.5,62.2-35.1,84.9c-22.601,22.7-52.801,35.1-84.9,35.1   H271.3V846.1c0,33.1,26.9,60,60,60H916.9C950,906.1,976.8,879.299,976.8,846.1z" fill="#FFFFFF"/>
	<path d="M271.3,694.9h-30h-30h-75.6v15.6c0,33.101,26.9,60,60,60h15.6h30h30h509.9c33.1,0,60-26.899,60-60V342v-30v-30v-15.6   c0-33.1-26.9-60-60-60h-15.6V282v30v30v232.9c0,32.1-12.5,62.2-35.101,84.899c-22.7,22.7-52.8,35.101-84.899,35.101H271.3   L271.3,694.9z" fill="#FFFFFF"/>
	<path d="M0,574.9c0,33.1,26.9,60,60,60h15.6h30h30h75.6h30h30h374.3c33.101,0,60-26.9,60-60V342v-30v-30v-75.6v-30v-30v-15.7   c0-33.1-26.899-60-60-60H60c-33.1,0-60,26.9-60,60V574.9z" fill="#FFFFFF"/>
</g>
<g>
</g>
<g>
</g>
<g>
</g>
<g>
</g>
<g>
</g>
<g>
</g>
<g>
</g>
<g>
</g>
<g>
</g>
<g>
</g>
<g>
</g>
<g>
</g>
<g>
</g>
<g>
</g>
<g>
</g>
</svg>
