<?xml version="1.0" encoding="iso-8859-1"?>
<!-- Generator: Adobe Illustrator 19.0.0, SVG Export Plug-In . SVG Version: 6.00 Build 0)  -->
<svg version="1.1" id="Layer_1" xmlns="http://www.w3.org/2000/svg" xmlns:xlink="http://www.w3.org/1999/xlink" x="0px" y="0px"
	 viewBox="0 0 512 512" style="enable-background:new 0 0 512 512;" xml:space="preserve">
<g>
	<g>
		<g>
			<path d="M199.541,365.792c-4.237-4.093-10.99-3.976-15.083,0.262c-3.993,4.134-3.993,10.687,0,14.821l64,64
				c4.157,4.174,10.911,4.187,15.085,0.03c0.01-0.01,0.02-0.02,0.03-0.03l64-64c4.093-4.237,3.976-10.99-0.261-15.083
				c-4.134-3.993-10.688-3.993-14.821,0l-45.824,45.792V100.416l45.792,45.792c4.237,4.093,10.99,3.976,15.083-0.262
				c3.993-4.134,3.993-10.687,0-14.821l-64-64c-4.157-4.174-10.911-4.187-15.085-0.03c-0.01,0.01-0.02,0.02-0.03,0.03l-64,64
				c-4.093,4.237-3.975,10.99,0.262,15.083c4.134,3.992,10.687,3.992,14.82,0l45.824-45.792v311.168L199.541,365.792z"/>
			<path d="M394.667,490.667H117.333c-5.891,0-10.667,4.776-10.667,10.667S111.442,512,117.333,512h277.333
				c5.891,0,10.667-4.776,10.667-10.667S400.558,490.667,394.667,490.667z"/>
			<path d="M117.333,21.333h277.333c5.891,0,10.667-4.776,10.667-10.667C405.333,4.776,400.558,0,394.667,0H117.333
				c-5.891,0-10.667,4.776-10.667,10.667C106.667,16.558,111.442,21.333,117.333,21.333z"/>
		</g>
	</g>
</g>
<g>
</g>
<g>
</g>
<g>
</g>
<g>
</g>
<g>
</g>
<g>
</g>
<g>
</g>
<g>
</g>
<g>
</g>
<g>
</g>
<g>
</g>
<g>
</g>
<g>
</g>
<g>
</g>
<g>
</g>
</svg>
