<?xml version="1.0" encoding="iso-8859-1"?>
<!-- Generator: Adobe Illustrator 16.0.0, SVG Export Plug-In . SVG Version: 6.00 Build 0)  -->
<!DOCTYPE svg PUBLIC "-//W3C//DTD SVG 1.1//EN" "http://www.w3.org/Graphics/SVG/1.1/DTD/svg11.dtd">
<svg version="1.1" id="Capa_1" xmlns="http://www.w3.org/2000/svg" xmlns:xlink="http://www.w3.org/1999/xlink" x="0px" y="0px"
	 width="258.11px" height="258.11px" viewBox="0 0 258.11 258.11" style="enable-background:new 0 0 258.11 258.11;"
	 xml:space="preserve">
<g>
	<path style="fill:#030303;" d="M85.321,110.78H48.76v36.55h36.561V110.78z M73.61,135.62H60.47v-13.129h13.14V135.62z"/>
	<path style="fill:#030303;" d="M85.321,192.914H48.76v36.561h36.561V192.914z M73.61,217.765H60.47v-13.141h13.14V217.765z"/>
	<path style="fill:#030303;" d="M48.76,65.196h36.561V28.644H48.76V65.196z M60.47,40.354h13.14v13.132H60.47V40.354z"/>
	<path style="fill:#030303;" d="M6.092,0v82.13v11.71v70.426v11.711v82.133h245.927v-82.133v-11.711v-70.42V82.136V0H6.092z
		 M240.308,246.406H17.803v-70.429h222.505V246.406z M240.308,164.267H17.803v-70.42h222.505V164.267z M17.803,82.136V11.71h222.505
		v70.42H17.803V82.136z"/>
</g>
<g>
</g>
<g>
</g>
<g>
</g>
<g>
</g>
<g>
</g>
<g>
</g>
<g>
</g>
<g>
</g>
<g>
</g>
<g>
</g>
<g>
</g>
<g>
</g>
<g>
</g>
<g>
</g>
<g>
</g>
</svg>
